HIERARCHY
ROOT mixamorig:Hips
{
	OFFSET 0.000000 85.230415 0.000000
	CHANNELS 6 Xposition Yposition Zposition Zrotation Yrotation Xrotation 
	JOINT mixamorig:Spine
	{
		OFFSET -0.000014 7.868599 1.166200
		CHANNELS 3 Zrotation Yrotation Xrotation
		JOINT mixamorig:Spine1
		{
			OFFSET 0.000000 8.307602 0.241180
			CHANNELS 3 Zrotation Yrotation Xrotation
			JOINT mixamorig:Spine2
			{
				OFFSET 0.000000 7.470001 -0.455969
				CHANNELS 3 Zrotation Yrotation Xrotation
				JOINT mixamorig:Neck
				{
					OFFSET 0.000000 21.623917 -3.130763
					CHANNELS 3 Zrotation Yrotation Xrotation
					JOINT mixamorig:Head
					{
						OFFSET 0.000000 8.979095 1.007916
						CHANNELS 3 Zrotation Yrotation Xrotation
						JOINT mixamorig:HeadTop_End
						{
							OFFSET 0.000000 36.978806 0.701265
							CHANNELS 3 Zrotation Yrotation Xrotation
							End Site
							{
								OFFSET 0.000000 0.000000 0.000000
							}
						}
						JOINT mixamorig:HairB
						{
							OFFSET -6.414200 28.771164 21.708258
							CHANNELS 3 Zrotation Yrotation Xrotation
							End Site
							{
								OFFSET 0.000000 0.000000 0.000000
							}
						}
						JOINT mixamorig:HairA
						{
							OFFSET -11.484100 27.496475 17.498951
							CHANNELS 3 Zrotation Yrotation Xrotation
							End Site
							{
								OFFSET 0.000000 0.000000 0.000000
							}
						}
						JOINT mixamorig:Bow_Left
						{
							OFFSET -6.807600 33.586777 20.752766
							CHANNELS 3 Zrotation Yrotation Xrotation
							End Site
							{
								OFFSET 0.000000 0.000000 0.000000
							}
						}
						JOINT mixamorig:Bow_Right
						{
							OFFSET -11.133100 30.313980 19.500957
							CHANNELS 3 Zrotation Yrotation Xrotation
							End Site
							{
								OFFSET 0.000000 0.000000 0.000000
							}
						}
						JOINT mixamorig:HairC
						{
							OFFSET 2.525900 31.959274 20.608562
							CHANNELS 3 Zrotation Yrotation Xrotation
							JOINT mixamorig:HairC1
							{
								OFFSET 1.733735 -3.232010 3.632423
								CHANNELS 3 Zrotation Yrotation Xrotation
								End Site
								{
									OFFSET 0.000000 0.000000 0.000000
								}
							}
						}
						JOINT mixamorig:Ponytail
						{
							OFFSET -0.181100 31.348724 -13.427048
							CHANNELS 3 Zrotation Yrotation Xrotation
							JOINT mixamorig:Ponytail1
							{
								OFFSET -0.746532 2.567368 -7.327436
								CHANNELS 3 Zrotation Yrotation Xrotation
								JOINT mixamorig:Ponytail2
								{
									OFFSET -0.357839 -10.803711 -7.221615
									CHANNELS 3 Zrotation Yrotation Xrotation
									End Site
									{
										OFFSET 0.000000 0.000000 0.000000
									}
								}
							}
						}
					}
				}
				JOINT mixamorig:LeftShoulder
				{
					OFFSET 4.215800 16.566910 -4.092372
					CHANNELS 3 Zrotation Yrotation Xrotation
					JOINT mixamorig:LeftArm
					{
						OFFSET 8.521194 -0.267403 -1.717659
						CHANNELS 3 Zrotation Yrotation Xrotation
						JOINT mixamorig:LeftForeArm
						{
							OFFSET 21.262897 0.000000 -0.000001
							CHANNELS 3 Zrotation Yrotation Xrotation
							JOINT mixamorig:LeftHand
							{
								OFFSET 21.154701 0.000000 -0.000001
								CHANNELS 3 Zrotation Yrotation Xrotation
								JOINT mixamorig:LeftHandThumb1
								{
									OFFSET 4.109039 -1.962593 2.610258
									CHANNELS 3 Zrotation Yrotation Xrotation
									JOINT mixamorig:LeftHandThumb2
									{
										OFFSET 3.101486 -1.790642 1.790644
										CHANNELS 3 Zrotation Yrotation Xrotation
										JOINT mixamorig:LeftHandThumb3
										{
											OFFSET 3.038742 -1.754417 1.754420
											CHANNELS 3 Zrotation Yrotation Xrotation
											JOINT mixamorig:LeftHandThumb4
											{
												OFFSET 2.539978 -1.466461 1.466458
												CHANNELS 3 Zrotation Yrotation Xrotation
												End Site
												{
													OFFSET 0.000000 0.000000 0.000000
												}
											}
										}
									}
								}
								JOINT mixamorig:LeftHandIndex1
								{
									OFFSET 11.845871 -0.683540 3.729384
									CHANNELS 3 Zrotation Yrotation Xrotation
									JOINT mixamorig:LeftHandIndex2
									{
										OFFSET 3.283096 0.000000 -0.000000
										CHANNELS 3 Zrotation Yrotation Xrotation
										JOINT mixamorig:LeftHandIndex3
										{
											OFFSET 3.323807 0.000000 -0.000000
											CHANNELS 3 Zrotation Yrotation Xrotation
											JOINT mixamorig:LeftHandIndex4
											{
												OFFSET 3.020599 0.000000 -0.000000
												CHANNELS 3 Zrotation Yrotation Xrotation
												End Site
												{
													OFFSET 0.000000 0.000000 0.000000
												}
											}
										}
									}
								}
								JOINT mixamorig:LeftHandMiddle1
								{
									OFFSET 12.082413 0.000000 -0.000000
									CHANNELS 3 Zrotation Yrotation Xrotation
									JOINT mixamorig:LeftHandMiddle2
									{
										OFFSET 3.410500 0.000000 0.000000
										CHANNELS 3 Zrotation Yrotation Xrotation
										JOINT mixamorig:LeftHandMiddle3
										{
											OFFSET 3.312202 0.000000 0.000000
											CHANNELS 3 Zrotation Yrotation Xrotation
											JOINT mixamorig:LeftHandMiddle4
											{
												OFFSET 3.438499 0.000000 0.000000
												CHANNELS 3 Zrotation Yrotation Xrotation
												End Site
												{
													OFFSET 0.000000 0.000000 0.000000
												}
											}
										}
									}
								}
								JOINT mixamorig:LeftHandRing1
								{
									OFFSET 12.470573 0.087585 -2.973213
									CHANNELS 3 Zrotation Yrotation Xrotation
									JOINT mixamorig:LeftHandRing2
									{
										OFFSET 3.053307 0.000000 0.000000
										CHANNELS 3 Zrotation Yrotation Xrotation
										JOINT mixamorig:LeftHandRing3
										{
											OFFSET 3.295898 0.000000 0.000000
											CHANNELS 3 Zrotation Yrotation Xrotation
											JOINT mixamorig:LeftHandRing4
											{
												OFFSET 3.727997 0.000000 0.000000
												CHANNELS 3 Zrotation Yrotation Xrotation
												End Site
												{
													OFFSET 0.000000 0.000000 0.000000
												}
											}
										}
									}
								}
								JOINT mixamorig:LeftHandPinky1
								{
									OFFSET 11.691048 -0.779549 -5.760270
									CHANNELS 3 Zrotation Yrotation Xrotation
									JOINT mixamorig:LeftHandPinky2
									{
										OFFSET 2.861702 0.000000 0.000000
										CHANNELS 3 Zrotation Yrotation Xrotation
										JOINT mixamorig:LeftHandPinky3
										{
											OFFSET 2.863403 0.000000 0.000000
											CHANNELS 3 Zrotation Yrotation Xrotation
											JOINT mixamorig:LeftHandPinky4
											{
												OFFSET 2.545403 0.000000 0.000000
												CHANNELS 3 Zrotation Yrotation Xrotation
												End Site
												{
													OFFSET 0.000000 0.000000 0.000000
												}
											}
										}
									}
								}
							}
							JOINT mixamorig:LeftWristTwist
							{
								OFFSET 10.565701 0.000000 -0.000000
								CHANNELS 3 Zrotation Yrotation Xrotation
								End Site
								{
									OFFSET 0.000000 0.000000 0.000000
								}
							}
						}
						JOINT mixamorig:LeftUpArmTwist
						{
							OFFSET 10.646198 0.000000 -0.000000
							CHANNELS 3 Zrotation Yrotation Xrotation
							End Site
							{
								OFFSET 0.000000 0.000000 0.000000
							}
						}
					}
				}
				JOINT mixamorig:Right_Breast
				{
					OFFSET -2.562200 12.208893 5.100423
					CHANNELS 3 Zrotation Yrotation Xrotation
					End Site
					{
						OFFSET 0.000000 0.000000 0.000000
					}
				}
				JOINT mixamorig:Left_Breast
				{
					OFFSET 2.562200 12.208893 5.100423
					CHANNELS 3 Zrotation Yrotation Xrotation
					End Site
					{
						OFFSET 0.000000 0.000000 0.000000
					}
				}
				JOINT mixamorig:RightShoulder
				{
					OFFSET -4.215800 16.567413 -4.092372
					CHANNELS 3 Zrotation Yrotation Xrotation
					JOINT mixamorig:RightArm
					{
						OFFSET -8.521287 -0.267906 -1.717664
						CHANNELS 3 Zrotation Yrotation Xrotation
						JOINT mixamorig:RightForeArm
						{
							OFFSET -21.262793 0.000000 0.000001
							CHANNELS 3 Zrotation Yrotation Xrotation
							JOINT mixamorig:RightHand
							{
								OFFSET -21.154800 0.000000 -0.000000
								CHANNELS 3 Zrotation Yrotation Xrotation
								JOINT mixamorig:RightHandThumb1
								{
									OFFSET -4.108955 -1.962654 2.610195
									CHANNELS 3 Zrotation Yrotation Xrotation
									JOINT mixamorig:RightHandThumb2
									{
										OFFSET -3.101406 -1.790596 1.790599
										CHANNELS 3 Zrotation Yrotation Xrotation
										JOINT mixamorig:RightHandThumb3
										{
											OFFSET -3.038822 -1.754463 1.754464
											CHANNELS 3 Zrotation Yrotation Xrotation
											JOINT mixamorig:RightHandThumb4
											{
												OFFSET -2.539749 -1.466324 1.466325
												CHANNELS 3 Zrotation Yrotation Xrotation
												End Site
												{
													OFFSET 0.000000 0.000000 0.000000
												}
											}
										}
									}
								}
								JOINT mixamorig:RightHandIndex1
								{
									OFFSET -11.845840 -0.684052 3.729363
									CHANNELS 3 Zrotation Yrotation Xrotation
									JOINT mixamorig:RightHandIndex2
									{
										OFFSET -3.283096 0.000000 -0.000000
										CHANNELS 3 Zrotation Yrotation Xrotation
										JOINT mixamorig:RightHandIndex3
										{
											OFFSET -3.323807 0.000000 -0.000000
											CHANNELS 3 Zrotation Yrotation Xrotation
											JOINT mixamorig:RightHandIndex4
											{
												OFFSET -3.020599 0.000000 0.000000
												CHANNELS 3 Zrotation Yrotation Xrotation
												End Site
												{
													OFFSET 0.000000 0.000000 0.000000
												}
											}
										}
									}
								}
								JOINT mixamorig:RightHandMiddle1
								{
									OFFSET -12.082314 0.000000 0.000000
									CHANNELS 3 Zrotation Yrotation Xrotation
									JOINT mixamorig:RightHandMiddle2
									{
										OFFSET -3.410606 0.000000 0.000000
										CHANNELS 3 Zrotation Yrotation Xrotation
										JOINT mixamorig:RightHandMiddle3
										{
											OFFSET -3.312195 0.000000 0.000000
											CHANNELS 3 Zrotation Yrotation Xrotation
											JOINT mixamorig:RightHandMiddle4
											{
												OFFSET -3.438499 0.000000 0.000000
												CHANNELS 3 Zrotation Yrotation Xrotation
												End Site
												{
													OFFSET 0.000000 0.000000 0.000000
												}
											}
										}
									}
								}
								JOINT mixamorig:RightHandRing1
								{
									OFFSET -12.470573 0.087166 -2.973210
									CHANNELS 3 Zrotation Yrotation Xrotation
									JOINT mixamorig:RightHandRing2
									{
										OFFSET -3.053299 0.000000 0.000000
										CHANNELS 3 Zrotation Yrotation Xrotation
										JOINT mixamorig:RightHandRing3
										{
											OFFSET -3.295898 0.000000 0.000000
											CHANNELS 3 Zrotation Yrotation Xrotation
											JOINT mixamorig:RightHandRing4
											{
												OFFSET -3.727997 0.000000 0.000000
												CHANNELS 3 Zrotation Yrotation Xrotation
												End Site
												{
													OFFSET 0.000000 0.000000 0.000000
												}
											}
										}
									}
								}
								JOINT mixamorig:RightHandPinky1
								{
									OFFSET -11.691017 -0.779953 -5.760294
									CHANNELS 3 Zrotation Yrotation Xrotation
									JOINT mixamorig:RightHandPinky2
									{
										OFFSET -2.861603 0.000000 0.000000
										CHANNELS 3 Zrotation Yrotation Xrotation
										JOINT mixamorig:RightHandPinky3
										{
											OFFSET -2.863403 0.000000 0.000000
											CHANNELS 3 Zrotation Yrotation Xrotation
											JOINT mixamorig:RightHandPinky4
											{
												OFFSET -2.545303 0.000000 0.000000
												CHANNELS 3 Zrotation Yrotation Xrotation
												End Site
												{
													OFFSET 0.000000 0.000000 0.000000
												}
											}
										}
									}
								}
							}
							JOINT mixamorig:RightWristTwist
							{
								OFFSET -10.565701 0.000000 0.000000
								CHANNELS 3 Zrotation Yrotation Xrotation
								End Site
								{
									OFFSET 0.000000 0.000000 0.000000
								}
							}
						}
						JOINT mixamorig:RightUpArmTwist
						{
							OFFSET -10.646093 0.000000 0.000001
							CHANNELS 3 Zrotation Yrotation Xrotation
							End Site
							{
								OFFSET 0.000000 0.000000 0.000000
							}
						}
					}
				}
			}
		}
		JOINT mixamorig:Belly
		{
			OFFSET 0.000000 -0.538567 3.357786
			CHANNELS 3 Zrotation Yrotation Xrotation
			End Site
			{
				OFFSET 0.000000 0.000000 0.000000
			}
		}
	}
	JOINT mixamorig:LeftUpLeg
	{
		OFFSET 8.267015 -7.995483 -0.379100
		CHANNELS 3 Zrotation Yrotation Xrotation
		JOINT mixamorig:LeftLeg
		{
			OFFSET -0.000033 -32.369438 0.062314
			CHANNELS 3 Zrotation Yrotation Xrotation
			JOINT mixamorig:LeftFoot
			{
				OFFSET 0.000025 -35.030464 -2.208349
				CHANNELS 3 Zrotation Yrotation Xrotation
				JOINT mixamorig:LeftToeBase
				{
					OFFSET 1.232906 -9.835773 10.854839
					CHANNELS 3 Zrotation Yrotation Xrotation
					JOINT mixamorig:LeftToe_End
					{
						OFFSET 0.210410 0.001970 7.008142
						CHANNELS 3 Zrotation Yrotation Xrotation
						End Site
						{
							OFFSET 0.000000 0.000000 0.000000
						}
					}
				}
			}
		}
	}
	JOINT mixamorig:RightUpLeg
	{
		OFFSET -8.266986 -7.995514 -0.379100
		CHANNELS 3 Zrotation Yrotation Xrotation
		JOINT mixamorig:RightLeg
		{
			OFFSET 0.000001 -32.369438 0.062314
			CHANNELS 3 Zrotation Yrotation Xrotation
			JOINT mixamorig:RightFoot
			{
				OFFSET 0.000001 -35.030464 -2.208349
				CHANNELS 3 Zrotation Yrotation Xrotation
				JOINT mixamorig:RightToeBase
				{
					OFFSET -1.232896 -9.835700 10.854908
					CHANNELS 3 Zrotation Yrotation Xrotation
					JOINT mixamorig:RightToe_End
					{
						OFFSET -0.214257 0.001952 7.007725
						CHANNELS 3 Zrotation Yrotation Xrotation
						End Site
						{
							OFFSET 0.000000 0.000000 0.000000
						}
					}
				}
			}
		}
	}
	JOINT mixamorig:SkirtA
	{
		OFFSET 11.243096 1.931320 -10.868500
		CHANNELS 3 Zrotation Yrotation Xrotation
		JOINT mixamorig:SkirtA1
		{
			OFFSET 2.094878 -7.760521 -3.754759
			CHANNELS 3 Zrotation Yrotation Xrotation
			End Site
			{
				OFFSET 0.000000 0.000000 0.000000
			}
		}
	}
	JOINT mixamorig:SkirtB
	{
		OFFSET -0.000008 4.335800 -15.692000
		CHANNELS 3 Zrotation Yrotation Xrotation
		JOINT mixamorig:SkirtB1
		{
			OFFSET 0.000000 -9.729668 -3.399943
			CHANNELS 3 Zrotation Yrotation Xrotation
			End Site
			{
				OFFSET 0.000000 0.000000 0.000000
			}
		}
	}
	JOINT mixamorig:SkirtC
	{
		OFFSET -11.243104 1.931381 -10.868500
		CHANNELS 3 Zrotation Yrotation Xrotation
		JOINT mixamorig:SkirtC1
		{
			OFFSET -1.996108 -7.801628 -3.723248
			CHANNELS 3 Zrotation Yrotation Xrotation
			End Site
			{
				OFFSET 0.000000 0.000000 0.000000
			}
		}
	}
}
MOTION
Frames: 4
Frame Time: 0.016667
-25.815832 80.830917 -73.155655 -2.662205 33.749203 -5.186211 9.931964 6.592302 14.996462 2.353257 1.919016 3.067810 2.298826 1.872190 3.091632 0.278715 -3.052680 3.830288 11.513024 -30.997599 -19.663556 0.000000 0.000000 0.000000 0.000002 0.000001 0.000000 0.000000 -0.000003 -0.000002 0.000008 -0.000004 -0.000003 -0.000003 0.000002 0.000001 -0.000002 -0.000003 -0.000003 -0.000000 -0.000002 0.000001 -0.000001 -0.000001 -0.000001 -0.000001 -0.000002 -0.000001 -0.000001 -0.000001 0.000006 -18.800143 -7.138938 2.912591 -64.721559 -4.495101 -5.525230 -0.000038 -24.960872 0.000006 2.249394 2.889172 4.081205 6.429199 4.893275 4.893868 9.924170 6.672672 16.419783 13.822144 -6.150893 -16.451065 0.000001 -0.000001 -0.000000 -32.867429 -0.338079 -0.687594 -27.043576 2.667660 -0.641622 -8.143222 0.831605 -0.059208 0.000003 -0.000002 -0.000000 -47.332711 4.313199 -3.573855 -26.944102 2.658594 -0.637011 -19.640289 1.972713 -0.341488 -0.000001 -0.000000 -0.000001 -55.140014 7.575100 -4.401790 -35.418766 3.398823 -1.085595 -29.413574 2.881125 -0.756365 0.000000 -0.000001 0.000000 -62.657363 4.144573 -5.387356 -32.998693 3.194419 -0.946416 -36.508505 3.488891 -1.151069 -0.000002 -0.000002 0.000000 0.000003 -0.000002 0.000003 0.000000 0.000000 -0.000001 0.000001 -0.000002 0.000001 0.000001 -0.000002 0.000001 23.447356 18.994801 6.762194 37.344365 18.920178 -4.724252 0.000054 20.447187 0.000011 -7.422339 19.552157 -1.437833 1.659149 -1.630433 -1.242640 -12.036057 -19.343882 19.701834 -12.720677 -9.168268 -12.858124 0.000002 0.000006 0.000003 34.080086 -0.956650 0.001044 53.463210 -3.744838 -1.886556 33.921837 -2.602927 -0.793967 0.000000 0.000000 0.000002 43.761076 -2.228696 -2.833231 54.312175 -3.785411 -1.942296 41.855447 -3.111293 -1.190067 0.000000 -0.000001 0.000000 49.099179 -1.431409 -3.295809 38.502227 -2.903210 -1.014094 51.324035 -3.638959 -1.748781 -0.000001 0.000001 -0.000001 43.077652 -1.147046 -3.525962 52.113223 -3.678614 -1.799156 40.836878 -3.049199 -1.135339 -0.000001 -0.000001 0.000002 -0.000001 0.000000 0.000000 0.000000 0.000000 -0.000001 0.000000 -0.000002 -0.000001 4.710929 5.818574 -35.911913 6.435011 4.970557 48.533660 -5.652202 9.700190 -9.008214 -0.000007 -0.000006 -4.657158 0.000000 0.000001 0.000000 0.915820 -9.681161 -24.978630 0.221170 -11.071470 26.476861 -5.098336 -6.797091 2.197278 0.000001 -0.000003 -2.170568 0.000000 0.000000 0.000000 0.000000 -0.000003 -0.000005 0.000000 0.000004 0.000001 0.000002 -0.000001 -0.000002 0.000001 -0.000002 -0.000002 0.000000 -0.000005 0.000000 0.000001 0.000002 0.000002 
-26.162531 80.735298 -74.101349 -2.770222 33.540457 -5.352121 10.130757 6.859112 14.912126 2.381654 1.996810 3.054027 2.324488 1.949681 3.078766 0.359600 -3.065894 3.794869 11.936928 -31.192897 -19.672737 0.000000 0.000000 0.000001 -0.000003 0.000000 0.000001 -0.000002 -0.000001 0.000000 0.000004 -0.000003 -0.000003 -0.000005 0.000002 0.000005 -0.000001 0.000000 0.000001 0.000002 -0.000001 0.000004 -0.000001 0.000000 0.000003 0.000001 0.000001 0.000001 0.000000 0.000000 0.000003 -18.780976 -7.095279 2.904604 -64.850701 -2.227827 -8.727485 -0.000027 -22.099190 0.000012 2.971293 6.388536 1.077686 6.429202 4.893278 4.893874 9.924170 6.672673 16.419782 13.806212 -5.050434 -16.002422 -0.000001 0.000006 -0.000001 -34.226944 -0.182879 -0.692448 -28.202812 2.772650 -0.696654 -9.051076 0.923599 -0.073091 -0.000001 -0.000002 0.000000 -48.867059 4.388265 -3.733731 -28.310533 2.782364 -0.701860 -20.798131 2.083916 -0.382470 -0.000001 -0.000002 0.000000 -56.806141 7.599129 -4.582389 -36.949896 3.524991 -1.178063 -30.779298 3.001882 -0.826445 0.000000 -0.000001 -0.000001 -64.388369 4.178443 -5.568074 -34.649966 3.334529 -1.040459 -38.038584 3.613166 -1.245836 0.000002 -0.000000 0.000001 0.000000 0.000001 0.000002 -0.000001 -0.000000 -0.000001 0.000000 0.000002 0.000000 0.000000 0.000002 0.000000 23.344646 19.135247 6.787954 36.695697 20.283621 -4.637988 0.000038 21.672089 0.000008 -7.009985 19.976456 -1.396077 1.044236 -1.750229 -1.172663 -12.036058 -19.343876 19.701837 -12.711284 -8.109365 -13.271166 0.000000 -0.000001 0.000000 32.471678 -0.835558 0.015932 51.849537 -3.665416 -1.782263 32.311740 -2.493290 -0.722387 -0.000000 -0.000001 0.000004 41.977927 -2.146607 -2.681564 52.694616 -3.707397 -1.836593 40.497390 -3.028275 -1.117340 -0.000001 0.000000 0.000003 47.170295 -1.350517 -3.126412 36.708599 -2.787766 -0.925058 49.712079 -3.555763 -1.647618 0.000001 0.000000 -0.000005 40.942404 -1.069542 -3.402522 50.221224 -3.582348 -1.679346 39.051122 -2.937964 -1.042058 -0.000001 -0.000000 -0.000002 0.000000 -0.000001 0.000000 -0.000001 0.000001 0.000001 0.000001 0.000000 -0.000001 5.522137 6.085220 -34.545265 6.379451 4.767186 49.360557 -5.513727 9.959739 -9.299248 -0.000007 0.000007 -4.650841 0.000000 -0.000002 0.000000 0.963678 -9.621305 -25.145290 0.474351 -11.077461 25.330236 -5.498935 -6.659036 3.579692 0.000000 0.000000 -2.176593 0.000000 0.000000 0.000000 -0.000003 -0.000003 -0.000004 -0.000001 0.000001 -0.000000 0.000001 -0.000001 -0.000002 0.000000 -0.000004 -0.000002 -0.000000 -0.000003 0.000001 -0.000002 -0.000004 0.000000 
-26.522446 80.652771 -75.072762 -2.867006 33.441019 -5.398039 10.242929 7.023662 14.777527 2.407765 2.041432 3.023181 2.350445 1.993532 3.048412 0.441733 -3.067732 3.735968 12.495319 -31.225927 -19.792787 0.000000 0.000000 -0.000002 -0.000000 0.000001 -0.000002 0.000000 -0.000003 -0.000005 0.000005 -0.000004 -0.000001 -0.000000 -0.000003 0.000001 -0.000002 -0.000001 -0.000002 0.000001 -0.000002 0.000002 -0.000001 -0.000002 -0.000001 -0.000002 0.000001 0.000001 0.000001 0.000000 -0.000001 -18.581576 -7.276612 2.925344 -64.914410 0.334970 -11.259558 -0.000043 -21.363978 0.000009 2.854809 11.490902 -1.341102 6.429195 4.893273 4.893867 9.924171 6.672678 16.419783 13.799511 -3.935004 -15.551514 0.000001 -0.000000 0.000002 -35.673428 -0.021064 -0.699824 -29.470832 2.886201 -0.759243 -10.088942 1.028449 -0.090780 0.000002 0.000001 0.000003 -50.467146 4.461967 -3.902035 -29.764137 2.912284 -0.774082 -22.064516 2.204533 -0.429855 0.000000 -0.000001 0.000000 -58.516292 7.618365 -4.768864 -38.546739 3.653879 -1.278038 -32.232165 3.128456 -0.904138 -0.000000 -0.000002 0.000002 -66.141358 4.206835 -5.751501 -36.345260 3.475480 -1.141151 -39.634297 3.740022 -1.348175 -0.000001 -0.000002 0.000001 0.000001 0.000000 -0.000001 -0.000000 0.000001 -0.000002 0.000000 0.000002 0.000000 0.000000 0.000002 0.000000 23.276362 19.055327 6.749961 35.998003 21.841218 -4.337661 0.000052 22.916217 0.000004 -6.303800 20.339510 -1.269727 0.391259 -1.878308 -1.092731 -12.036058 -19.343880 19.701836 -12.709445 -6.987983 -13.711482 0.000004 0.000002 -0.000001 30.766623 -0.703306 0.029348 50.138797 -3.578071 -1.674190 30.604749 -2.374892 -0.649891 0.000000 0.000000 -0.000002 40.136889 -2.056944 -2.526985 50.979733 -3.621405 -1.726992 39.003440 -2.934969 -1.039627 0.000000 0.000000 -0.000004 45.221882 -1.263026 -2.957090 34.856761 -2.665655 -0.836950 48.003133 -3.464526 -1.542990 0.000000 0.000000 0.000003 38.829299 -0.986229 -3.283224 48.310091 -3.481151 -1.561580 37.207428 -2.820137 -0.949460 0.000000 0.000000 0.000000 -0.000001 0.000001 0.000001 -0.000001 -0.000000 -0.000001 0.000000 0.000003 0.000000 6.262820 6.321018 -33.103613 6.371690 4.696265 49.712813 -5.352189 10.067320 -9.440998 -0.000001 0.000001 -4.720752 0.000000 -0.000001 0.000000 1.003684 -9.556146 -25.299206 0.768107 -11.067614 23.878342 -5.916334 -6.620973 5.131610 0.000002 0.000002 -2.181486 0.000000 0.000001 0.000000 0.000000 -0.000003 -0.000001 0.000001 -0.000001 0.000001 -0.000001 -0.000002 0.000000 0.000000 -0.000002 0.000000 0.000002 -0.000003 -0.000000 0.000001 -0.000003 -0.000003 
-26.900610 80.585136 -76.086365 -2.942732 33.447562 -5.399836 10.237381 7.039923 14.601567 2.428892 2.038040 2.982513 2.372751 1.988789 3.007859 0.523507 -3.064258 3.690391 13.095283 -31.056599 -19.987136 -0.000001 0.000000 0.000000 0.000002 0.000000 -0.000002 -0.000001 -0.000003 -0.000002 0.000004 -0.000003 -0.000005 0.000000 0.000002 0.000003 -0.000002 -0.000001 0.000000 -0.000002 -0.000000 -0.000002 -0.000001 -0.000001 -0.000001 0.000004 0.000001 -0.000001 -0.000000 -0.000001 0.000006 -18.241456 -7.639658 2.967423 -64.787242 3.324336 -12.805531 -0.000032 -21.307269 0.000004 1.483739 16.220474 -3.049425 6.429201 4.893272 4.893869 9.924165 6.672675 16.419777 13.802275 -2.811543 -15.100862 -0.000003 0.000001 0.000003 -37.196135 0.145496 -0.709938 -30.836825 3.006947 -0.829474 -11.246009 1.144912 -0.112729 -0.000003 0.000003 -0.000000 -52.122128 4.533244 -4.077691 -31.294154 3.046970 -0.853608 -23.428691 2.333259 -0.483867 0.000000 -0.000004 0.000000 -60.259530 7.632271 -4.959922 -40.198402 3.784171 -1.385188 -33.761417 3.259478 -0.989347 -0.000002 -0.000000 -0.000001 -67.905395 4.229446 -5.936280 -38.073664 3.616001 -1.248060 -41.284846 3.868141 -1.457689 -0.000001 -0.000002 -0.000001 -0.000002 0.000000 0.000001 0.000000 0.000002 0.000001 -0.000001 0.000000 0.000002 -0.000001 0.000000 0.000002 23.268568 18.769860 6.657892 35.282328 23.586251 -3.814418 0.000040 24.170721 -0.000003 -5.294707 20.654505 -1.040548 -0.292479 -2.013251 -1.002823 -12.036056 -19.343877 19.701835 -12.716441 -5.817224 -14.174767 -0.000003 -0.000002 0.000001 28.984375 -0.560916 0.040668 48.350496 -3.483327 -1.564049 28.820338 -2.248849 -0.577908 0.000002 0.000000 0.000000 38.257385 -1.960283 -2.371399 49.187085 -3.528084 -1.615202 37.393131 -2.832155 -0.958608 0.000000 0.000000 -0.000003 43.273871 -1.169819 -2.789739 32.966226 -2.538100 -0.751125 46.216728 -3.365847 -1.436566 0.000000 0.000000 -0.000001 36.760135 -0.898401 -3.169311 46.399404 -3.376092 -1.447297 35.325232 -2.696801 -0.858848 0.000000 0.000000 0.000001 0.000000 0.000000 0.000000 0.000002 0.000001 0.000000 0.000001 -0.000006 -0.000000 6.928980 6.529012 -31.537309 6.464078 4.791714 49.627407 -5.068284 9.988085 -9.500870 -0.000002 -0.000008 -4.999214 0.000000 -0.000003 0.000000 1.008413 -9.471306 -25.320938 1.106222 -11.030016 22.042096 -6.354443 -6.693345 6.895368 0.000002 0.000004 -2.185141 0.000000 0.000000 0.000000 -0.000001 -0.000000 -0.000003 0.000001 0.000001 0.000003 0.000000 0.000000 0.000000 -0.000000 -0.000003 0.000002 0.000002 0.000002 0.000000 0.000000 0.000000 0.000000 
